<svg xmlns="http://www.w3.org/2000/svg" width="33" height="26" fill="none"><path fill="#000" d="M.483 11.852C.174 12.157 0 12.568 0 13v6.5c0 .432.174.844.483 1.149.31.304.729.476 1.167.476H3.3v-9.75H1.65c-.438 0-.857.173-1.167.477m23.442-6.977H18.15v-3.25C18.15.73 17.409 0 16.5 0s-1.65.73-1.65 1.625v3.25H9.075c-2.28 0-4.125 1.818-4.125 4.063V22.75c0 1.797 1.476 3.25 3.3 3.25h16.5c1.824 0 3.3-1.453 3.3-3.25V8.938c0-2.245-1.84-4.063-4.125-4.063M13.2 21.125H9.9V19.5h3.3zm-1.65-6.094c-1.14 0-2.062-.909-2.062-2.031s.923-2.031 2.062-2.031c1.14 0 2.063.909 2.063 2.031s-.923 2.031-2.063 2.031m6.6 6.094h-3.3V19.5h3.3zm4.95 0h-3.3V19.5h3.3zm-1.65-6.094c-1.14 0-2.062-.908-2.062-2.031s.922-2.031 2.062-2.031 2.063.909 2.063 2.031-.924 2.031-2.063 2.031m11.065-3.179a1.66 1.66 0 0 0-1.165-.477H29.7v9.75h1.65a1.66 1.66 0 0 0 1.166-.476c.31-.305.484-.717.484-1.149V13a1.6 1.6 0 0 0-.485-1.148"/></svg>