<svg width="33" height="26" viewBox="0 0 33 26" fill="none" xmlns="http://www.w3.org/2000/svg">
<path d="M0.483398 11.8523C0.174023 12.157 0 12.5684 0 13V19.5C0 19.9316 0.174023 20.344 0.483398 20.6487C0.792773 20.9534 1.21172 21.125 1.65 21.125H3.3V11.375H1.65C1.21172 11.375 0.793031 11.5477 0.483398 11.8523ZM23.925 4.875H18.15V1.625C18.15 0.730234 17.4085 0 16.5 0C15.5915 0 14.85 0.730234 14.85 1.625V4.875H9.075C6.79594 4.875 4.95 6.69297 4.95 8.9375V22.75C4.95 24.5466 6.42572 26 8.25 26H24.75C26.5743 26 28.05 24.5466 28.05 22.75V8.9375C28.05 6.69297 26.2092 4.875 23.925 4.875ZM13.2 21.125H9.9V19.5H13.2V21.125ZM11.55 15.0312C10.4105 15.0312 9.4875 14.1223 9.4875 13C9.4875 11.8777 10.4105 10.9688 11.55 10.9688C12.6895 10.9688 13.6125 11.8777 13.6125 13C13.6125 14.1223 12.6895 15.0312 11.55 15.0312ZM18.15 21.125H14.85V19.5H18.15V21.125ZM23.1 21.125H19.8V19.5H23.1V21.125ZM21.45 15.0312C20.3094 15.0312 19.3875 14.1233 19.3875 13C19.3875 11.8767 20.3105 10.9688 21.45 10.9688C22.5895 10.9688 23.5125 11.8777 23.5125 13C23.5125 14.1223 22.5895 15.0312 21.45 15.0312ZM32.5153 11.8523C32.2059 11.5477 31.7883 11.375 31.35 11.375H29.7V21.125H31.35C31.7883 21.125 32.207 20.9536 32.5163 20.6489C32.8257 20.3442 33 19.9316 33 19.5V13C33 12.5684 32.8247 12.157 32.5153 11.8523Z" fill="black"/>
</svg>
