<svg width="26" height="25" viewBox="0 0 26 25" fill="none" xmlns="http://www.w3.org/2000/svg">
<path d="M25.8613 23.5006C24.0135 20.2876 21.0558 17.8761 17.5553 16.7285C19.2332 15.7214 20.5371 14.186 21.2667 12.3584C21.9963 10.5307 22.1112 8.51185 21.5938 6.61187C21.0764 4.71189 19.9554 3.03592 18.4028 1.84143C16.8503 0.646938 14.9521 0 13 0C11.0479 0 9.14973 0.646938 7.59718 1.84143C6.04463 3.03592 4.92355 4.71189 4.40617 6.61187C3.88879 8.51185 4.00373 10.5307 4.73332 12.3584C5.46292 14.186 6.76681 15.7214 8.4447 16.7285C4.94417 17.8761 1.98649 20.2876 0.1387 23.5006C0.0479794 23.6512 0 23.8241 0 24.0004C0 24.1766 0.0479794 24.3495 0.1387 24.5002C0.223341 24.6533 0.347363 24.7806 0.497689 24.8686C0.648015 24.9565 0.819071 25.0019 0.992819 24.9999H25.0072C25.1809 25.0019 25.352 24.9565 25.5023 24.8686C25.6526 24.7806 25.7767 24.6533 25.8613 24.5002C25.952 24.3495 26 24.1766 26 24.0004C26 23.8241 25.952 23.6512 25.8613 23.5006Z" fill="black"/>
</svg>
